:SAMPLES-PER-SECOND 30
:FULLY-SPECIFIED
:DEGREES
94
root  23.5387 38.9949 1.35647 171.494 39.2739 176.533
RightUpLeg  -16.4222 -12.9691 -9.17969
RightLeg  61.9984 -2.83044 -6.28707
RightFoot  5.14901 -0.923632 6.59119
RightToes  0.000482159 0.542163 -0.142577
Spine  13.5786 1.35276 -2.45611
Spine1  9.98734 3.21416 -7.26484
HEad  26.3682 -9.47658 -9.6299
LeftShoulder1  5.49674 -8.54806 -39.3663
LeftArm  -19.1431 25.5975 -28.9137
LeftForeArm  33.807 -33.1713 -5.41537
LeftHand  -0.25398 0.0180481 5.50724
RightShoulder  4.6316 7.83569 34.8845
RightArm  -6.019 -10.1486 41.2857
RightForeArm  4.87606 37.1815 8.2177
RightHand  -1.98253 5.05248 -22.1435
LeftUpLeg  -7.02766 19.8524 -11.3319
LeftLeg  19.535 10.2039 3.81828
LeftFoot  -9.55667 -0.135611 12.3532
LeftToes  1.06246e-005 4.65855e-005 -8.18503e-006
95
root  24.6826 39.1994 1.53861 172.92 32.7014 177.471
RightUpLeg  -17.3935 -8.67094 -10.0306
RightLeg  54.9886 -4.63518 -7.50653
RightFoot  2.58496 -0.535074 4.51553
RightToes  0.000482159 0.542163 -0.142577
Spine  14.6356 1.11278 -2.99301
Spine1  9.46782 2.39982 -5.7185
HEad  27.4413 -11.4257 -9.32569
LeftShoulder1  5.57567 -8.7762 -39.1753
LeftArm  -17.8524 25.0063 -29.7532
LeftForeArm  37.256 -37.7711 -6.40405
LeftHand  -0.25398 0.0180481 5.50724
RightShoulder  4.58749 7.82556 34.537
RightArm  -4.3189 -11.2887 41.1752
RightForeArm  5.43974 38.5778 8.60825
RightHand  -1.93643 4.87326 -22.0072
LeftUpLeg  -6.57642 15.7691 -9.76942
LeftLeg  19.6592 7.33661 3.03424
LeftFoot  -9.14548 -0.162707 11.3162
LeftToes  1.06246e-005 4.65855e-005 -8.18503e-006
96
root  25.923 39.3013 1.71887 173.814 25.9369 177.758
RightUpLeg  -17.0066 -2.73852 -11.8565
RightLeg  46.4539 -5.18921 -6.18341
RightFoot  -1.42263 -0.365451 4.1767
RightToes  0.000482159 0.542163 -0.142577
Spine  15.7406 1.08915 -4.19827
Spine1  9.06541 1.68685 -4.01957
HEad  28.2417 -13.7022 -8.56736
LeftShoulder1  5.63126 -9.02169 -38.753
LeftArm  -16.2112 24.1986 -30.5306
LeftForeArm  40.446 -41.8282 -7.37738
LeftHand  -0.25398 0.0180481 5.50724
RightShoulder  4.58487 7.87648 34.3355
RightArm  -3.19935 -12.2708 40.9454
RightForeArm  5.13539 39.8827 9.04098
RightHand  -1.95763 4.91422 -22.1542
LeftUpLeg  -6.63647 11.0497 -8.42406
LeftLeg  20.5495 4.84284 2.34274
LeftFoot  -9.37245 -0.106393 9.4032
LeftToes  1.06246e-005 4.65855e-005 -8.18503e-006
97
root  27.2499 39.2911 1.8476 174.767 18.7343 177.722
RightUpLeg  -16.0613 4.60769 -14.3808
RightLeg  37.537 -3.28509 -3.00923
RightFoot  -5.46 -0.31357 5.35141
RightToes  0.000482159 0.542163 -0.142577
Spine  16.487 0.97258 -5.64737
Spine1  8.97346 0.843671 -2.3021
HEad  28.6382 -15.8867 -7.81275
LeftShoulder1  5.70543 -9.26478 -38.4927
LeftArm  -14.6475 23.0061 -30.9805
LeftForeArm  42.5217 -44.8666 -8.21633
LeftHand  -0.25398 0.0180481 5.50724
RightShoulder  4.57368 7.91938 34.089
RightArm  -2.5234 -12.835 40.7782
RightForeArm  4.95686 40.9114 9.39201
RightHand  -2.03377 5.16295 -22.4668
LeftUpLeg  -7.60529 5.10694 -7.25412
LeftLeg  22.307 2.9524 1.67237
LeftFoot  -9.83864 -0.0328112 7.0408
LeftToes  1.06246e-005 4.65855e-005 -8.18503e-006
98
root  28.6264 39.2012 1.90908 176.048 11.1861 177.547
RightUpLeg  -15.3718 12.8978 -17.0919
RightLeg  29.7046 1.04852 0.407679
RightFoot  -7.98386 -0.237337 6.18104
RightToes  0.000482159 0.542163 -0.142577
Spine  16.8786 0.70142 -6.93726
Spine1  8.98047 -0.107444 -0.648283
HEad  28.6428 -17.7568 -7.28123
LeftShoulder1  5.90966 -9.64603 -38.7406
LeftArm  -13.2327 21.4679 -30.8213
LeftForeArm  43.1468 -46.7691 -8.83518
LeftHand  -0.25398 0.0180481 5.50724
RightShoulder  4.51808 7.90474 33.6567
RightArm  -2.07745 -13.1554 40.6995
RightForeArm  4.90321 41.7734 9.68976
RightHand  -2.16463 5.58899 -22.9715
LeftUpLeg  -9.43949 -1.30384 -6.0832
LeftLeg  24.3026 1.05007 0.863819
LeftFoot  -10.1654 0.0087122 5.12029
LeftToes  1.06246e-005 4.65855e-005 -8.18503e-006
99
root  30.0736 39.0341 1.92475 177.274 3.3139 176.889
RightUpLeg  -14.6895 19.998 -19.7683
RightLeg  24.0656 6.06689 2.76285
RightFoot  -9.67992 -0.170886 7.35699
RightToes  0.000482159 0.542163 -0.142577
Spine  17.4956 0.501364 -8.66513
Spine1  8.86244 -1.14555 1.30759
HEad  28.3467 -19.3037 -6.87502
LeftShoulder1  6.23694 -10.1972 -39.3
LeftArm  -11.9357 19.4977 -30.2927
LeftForeArm  42.8146 -47.3847 -9.08249
LeftHand  -0.25398 0.0180481 5.50724
RightShoulder  4.44089 7.86129 33.1319
RightArm  -1.75151 -13.381 40.6075
RightForeArm  4.49684 42.518 9.97768
RightHand  -2.35069 6.16428 -23.6849
LeftUpLeg  -11.5855 -7.23679 -4.97711
LeftLeg  26.0925 -1.03731 -0.204401
LeftFoot  -10.576 0.0408475 3.28697
LeftToes  1.06246e-005 4.65855e-005 -8.18503e-006
100
root  31.6152 38.833 1.9274 178.451 -5.22883 175.865
RightUpLeg  -13.3305 22.3566 -21.2576
RightLeg  21.1223 9.37683 3.79563
RightFoot  -11.5437 -0.0582084 9.95261
RightToes  0.000482159 0.542163 -0.142577
Spine  18.8598 0.327899 -10.6628
Spine1  8.48092 -2.4279 3.84415
HEad  27.8322 -20.6344 -6.39942
LeftShoulder1  6.52015 -10.7053 -39.6522
LeftArm  -10.9326 16.856 -29.9649
LeftForeArm  42.2571 -46.5758 -8.82971
LeftHand  -0.25398 0.0180481 5.50724
RightShoulder  4.37154 7.81977 32.6638
RightArm  -1.63073 -13.4818 40.5759
RightForeArm  3.82245 43.0268 10.2053
RightHand  -2.53037 6.6761 -24.3931
LeftUpLeg  -13.8709 -12.4222 -3.67382
LeftLeg  27.3973 -3.98348 -1.89028
LeftFoot  -10.8989 0.0623486 0.910097
LeftToes  1.06246e-005 4.65855e-005 -8.18503e-006
101
root  33.1924 38.6833 1.96727 179.92 -14.4177 175.518
RightUpLeg  -11.9019 18.9091 -20.1366
RightLeg  21.1235 9.25074 3.71205
RightFoot  -13.4614 0.131121 12.1604
RightToes  0.000482159 0.542163 -0.142577
Spine  20.8467 -0.241206 -10.6644
Spine1  7.8039 -3.79391 6.13586
HEad  26.9379 -22.0153 -5.6467
LeftShoulder1  6.6975 -11.0929 -39.6505
LeftArm  -10.4908 13.4429 -29.9666
LeftForeArm  41.9043 -44.7424 -8.21827
LeftHand  -0.25398 0.0180481 5.50724
RightShoulder  4.31527 7.76931 32.3372
RightArm  -1.94547 -13.417 40.7733
RightForeArm  3.18696 43.2538 10.3304
RightHand  -2.63998 6.9107 -24.9414
LeftUpLeg  -16.9651 -17.3511 -1.00869
LeftLeg  28.0403 -8.51352 -4.54457
LeftFoot  -10.4208 0.0796334 -1.88763
LeftToes  1.06246e-005 4.65855e-005 -8.18503e-006
102
root  34.7348 38.586 2.06533 -178.643 -23.2204 176.583
RightUpLeg  -12.172 12.6147 -16.6823
RightLeg  23.7353 6.3399 2.80816
RightFoot  -14.8017 0.242948 11.4156
RightToes  0.000482159 0.542163 -0.142577
Spine  22.735 -1.26033 -7.05006
Spine1  7.06785 -4.54641 6.92039
HEad  25.3557 -23.6243 -4.47093
LeftShoulder1  6.9421 -11.6227 -39.6609
LeftArm  -10.6753 9.44372 -29.9838
LeftForeArm  41.8255 -42.615 -7.53644
LeftHand  -0.25398 0.0180481 5.50724
RightShoulder  4.27101 7.72678 32.0873
RightArm  -2.58147 -13.1008 41.08
RightForeArm  2.30918 43.1018 10.3327
RightHand  -2.70781 6.99791 -25.3811
LeftUpLeg  -21.2299 -21.5332 3.53602
LeftLeg  28.1135 -13.0929 -7.14763
LeftFoot  -9.08912 0.145072 -4.55139
LeftToes  1.06246e-005 4.65855e-005 -8.18503e-006
103
root  36.2591 38.5117 2.16167 -177.615 -30.4316 178.005
RightUpLeg  -14.3169 6.91042 -12.9292
RightLeg  27.2756 3.42188 1.69122
RightFoot  -15.0902 0.177762 8.47344
RightToes  0.000482159 0.542163 -0.142577
Spine  24.0632 -1.92435 -2.35811
Spine1  6.64321 -4.27159 6.23226
HEad  23.2559 -25.1036 -3.04934
LeftShoulder1  7.34827 -12.3893 -39.9865
LeftArm  -11.3374 5.33828 -30.0573
LeftForeArm  41.8448 -40.559 -6.91795
LeftHand  -0.25398 0.0180481 5.50724
RightShoulder  4.26305 7.81347 31.7252
RightArm  -2.75084 -12.3911 40.9768
RightForeArm  0.913105 42.3265 10.1438
RightHand  -2.73599 7.06507 -25.5031
LeftUpLeg  -25.3157 -22.9506 7.76957
LeftLeg  27.2719 -14.1645 -7.49556
LeftFoot  -7.30242 0.258432 -6.12048
LeftToes  1.06246e-005 4.65855e-005 -8.18503e-006
104
root  37.7564 38.5283 2.18019 -176.507 -36.0903 178.295
RightUpLeg  -16.4933 2.37032 -10.536
RightLeg  29.312 1.94245 0.945359
RightFoot  -14.42 0.0732885 6.38476
RightToes  0.000482159 0.542163 -0.142577
Spine  25.2297 -1.77403 0.0979472
Spine1  6.60014 -3.5819 5.80901
HEad  21.4693 -25.858 -1.86062
LeftShoulder1  7.71953 -12.982 -40.5466
LeftArm  -12.215 1.82394 -30.5929
LeftForeArm  41.6452 -38.6538 -6.39097
LeftHand  -0.25398 0.0180481 5.50724
RightShoulder  4.32434 8.12042 31.2546
RightArm  -1.85154 -11.2848 40.0183
RightForeArm  -0.155578 40.9417 9.72776
RightHand  -2.61658 6.84842 -24.8416
LeftUpLeg  -27.5291 -20.3299 8.76724
LeftLeg  25.4568 -10.4759 -5.08082
LeftFoot  -5.14561 0.321483 -5.45334
LeftToes  1.06246e-005 4.65855e-005 -8.18503e-006
